<?xml version="1.0" encoding="UTF-8"?><svg id="Capa_1" xmlns="http://www.w3.org/2000/svg" width="430.72" height="479.1" viewBox="0 0 430.72 479.1"><defs><style>.cls-1{fill:#e86e14;}</style></defs><path class="cls-1" d="M37.62,478.2c-6.8,2.21-20.29.3-26-5.07-2.52-2.37-5.86-4.44-6.69-8.28-.47-2.17-.66-4-2.18-5.83-.39-.47.14-1.7-.15-2.12-.34-.49-2.06-.61-2.27-1.14-1.19-3,1.09-6.05,2.52-8.74.65-1.27-1.82-2.29-.88-3.38,1.18-1.37,1.33-2.98,3.53-3.66-.71-.94-1.65-1.14-2.45-1.74,4.79-.8-1.63-2.07,5.16-13.47,2.39-4.02,3.79-8.16,5.8-12.22,3.45-6.96,9.97-15.36,15.29-21.3,7.08-7.91,14.12-16.39,24.06-20.6,3.23-1.37,5.65-4.61,8.72-5.61,13.63-4.42,5.24-3.9,19.93-7.25l11.73-2.68,13.77-1.74c2.68-.34,4.65-1.45,7.82-1.19,2.41.2,8.04.33,9.5-2.25,3.12-5.5,5.91-11.77,6.94-17.94.53-3.18,2.93-4.94,3.48-7.29l1.74-7.4,3.46-12.46c1.2-4.3.88-8.65,2.49-13.05.98-2.69,1.64-11.9,3.35-13.55-1.08-2.56-2.67-6.65-.87-9.31,1.69-2.49,4.9-.64,6.62-.43,3.9.46,5.64,1.77,8.86,3.66,2.75,1.61,8.39,3.37,7.55,7.78l-1.82,9.56c-.56,2.92-.97,5.88-1.45,8.8-.59,3.6-3.48,7.02-3.34,10.81.11,3.03-1.39,5-2.04,7.57-.94,3.72-1.8,6.73-3.57,10.22.97-1.91-5.88,21.84-8.5,23.69,3.68.05,7.33.8,10.01-.74l12.58-7.21c2.18-1.25,2.96-2.12,4.71-3.6l11.63-9.81c2.43-2.05,4.62-3.87,6.79-6l24.7-24.2c5.62-5.5,18.61-16.73,26.87-11.81,2.31,1.37,4.03,3.34,6.53,4.06,3.66,1.05,5.37,5.86,8.35,8.86-3.49,4.56-4.36,9.38-5.22,14.66-.47,2.86-2.83,5.46-1.71,8.67,2.27.18,2.17-2.3,3.17-3.25l4.95-4.68c2.08-1.96,3.42-4.14,5.36-5.86,5.61-5,12-12.5,15.42-14.96,4.76-3.43,8.74-7.87,13.08-11.97,2.86-2.7,16.02-11.53,20.29-14.01,3.7-2.15,6.6-5.17,11.21-5.59,5.24-.48,10.65-1.81,15.7.77,2.24,1.14,4.22,3.77,6.03,5.56,2.51,2.47,1.65,5.93,2.26,8.95,1.19,5.87.69,11.02.11,16.87l-.64,6.54-.25,15.17c-.05,3.35-4.09,19.02,7.94,21.17,1.99.36,3.11,1.59,5.89.61-2.08,2.43.14,4.58,0,6.68-.39,6.49-12.89,12.86-25.34,8.21-4.48-1.67-11.02-8.54-10.41-13.98.5-4.48-.45-6.49-.96-10.28.28,2.09.57-19.87.41-18.81.59-4.1-.92-7.97-.73-11.76-.11,2.29,3.77-10.57.99-12.03-2.62-1.37-13.09,7.08-15.41,9.13-1.96,1.74-4.01,2.78-5.97,4.48l-9.86,8.58-9.25,9.31c-1.77,1.79-3.22,3.32-5.08,5.3l-4.62,4.93c-1.94,2.07-5.28,3.31-6.56,6.01-.68,1.45-6.55,8.53-7.35,9.64-3.78,5.24-7.12,10.22-11.52,14.95-5.7,6.11-6.46,7.61-11.43,7.54-1.73-.02-2.72.53-4.89-.53-3.88-1.9-10.02-5.12-9.23-10.49.48-3.3,3.07-9.31,4.52-18.72l1.69-11.01c.62-4.03,1.85-8.04,1.06-12.32-3.47.13-4.14,3.31-6.05,5.3-5.5,5.72-20.01,20.7-25.25,25.03l-14.51,12c-14.94,12.35-8.08,4.41-17.64,10.94-14.9,10.18-31.32.37-33.66,9.12-1.01,3.78-3.36,6.61-5.13,9.86l-3.13,5.74c-4.75,8.71-15.01,24.05-21.51,31.54-2.71,3.13-4.1,7.11-7.98,9.61-1.92,1.24-2.54,4.55-4.43,5.91-3.5,2.53-5.62,6-8.39,9.23-1.46,1.7-4.01,2.67-5.3,4.46-.57.79-2.92.39-3.39,2.05-.85,2.98-3.66,4.09-5.74,5.88-7.71,6.63-16.11,12.19-25.52,16.45-2.73,1.24-5.76.63-8.32,1.46ZM33.72,457.81c2.23-1.4,5.24-.28,6.74-1.75l2.83-2.76c.09-.09,13.8-7.68,20.95-15.89,2.24-2.58,6.38-4.13,8.07-7.11,1.52-2.68,2.95-4.15,5.12-6.32l5.38-5.4,11.39-13.67c4.67-5.61,4.91-9.99,9.53-14.48,2.42-2.34,3.35-5.11,4.73-8.06s3.83-5.41,3.75-8.79c-1.75-.97-3.54.84-5.2.81-5.27-.1-9.65,1.48-14.55,2.94-2.02.6-3.79-.02-5.93,1.39-2.02,1.34-18.42,4.26-33.9,18.89-1.94,1.83-3.85,2.91-5.34,5.45-.73,1.24-10.56,13.46-10.32,12.75-1.5,4.49-4.79,7.58-6.61,11.81l-3.57,8.3c-1.93,4.48-1.59,9.56-5.55,13.28,1.86,2.36,1.54,4.93,2.64,7.17,1.85,3.75,6.57,3.5,9.83,1.45Z"/><path class="cls-1" d="M313.31,150.41c2.08-3.6,6.69.54,10.82-.31-1.61-2.08-3.34-1.03-5.53-2.29,2.26-1.94,4.2-.79,5.79-3.69.53,3.78,3.31,2.68,5.53,3.91,2.41,1.34,6.16,3.02,7.76,5.5,5.67,8.75.77,19.66,2.21,27.28,1.26,6.66-1.51,18.27,1.89,20.39,4.7,2.93,9.24-3.93,10.63-5.72,1.83-2.36,5.14-3.82,6.74-6.29s3.12-5.17,5.92-6.71c5.04-2.77,3.14-4.28,10.06-10,1.74-1.44,2.85-3.14,4.33-4.58,2.71-2.62,5.5-4.2,7.58-7.69.84-1.41,2.52-2.87,3.69-4.36,5.54-7.14,9.96-5.14,11.06-10.5.62-3.03,2.93-5.35,5.97-5.99,2.34-.49,3.48-2.35,4.9-3.58,3.64-3.15,7.75-.4,10.66,1.72s6.85,2.34,7.39,11.8c.32,5.52-17.7,20.25-21.3,23.99l-4.99,5.18c1.5-1.55-12.93,10.74-16.43,14.89-1.15,1.36-2.31,3.31-3.52,4.48-1.98,1.91-4.72,2.43-6.07,5.24-.67,1.39-11.12,10.06-12.38,11.56l-5.4,6.43c-5.02,5.98-14.04,9.2-22.22,7.02-7.86-2.1-16.16-15.09-14.97-20.05.66-2.76-1.22-4.55-1.88-6.73-.77-2.56,2.07-5.64-.78-8.45l-6.64,10.97c-10.01,16.53-22.35,31.73-39.25,42.01-7.88,4.79-7.39,3.55-15.36,7.06-3.13,1.38-20.48,1.65-24.33-.95-11.59-7.84-9.84-5.19-20.06-17.68-3.37.52-6.88,1.45-9.94,2.81-4.26,1.89-13.52,4.27-18.55,5.58l-13.92,3.63c-5.23,1.36-10.22,2.25-15.63,2.8-6.34.65-12.29,2.26-18.56,3.08l-16.98,2.24c-10.91,1.44-21.79,1.76-32.7,4.51-3.1.78-5.78.62-9,1.16l-19.2,3.23c-17.2,2.89-31.18,9.47-33.18,9.93l-5.7,1.3c.01-5.55-4.18.33-6.44-2.84-1.82-2.55-4.66-5.88-4.85-9.14-.34-5.84,4.94-9.24,9.08-11.64,2.13-1.24,2.74-3.66,5.9-3.73,1.76-.04,3.47-1.97,4.75-3.16l7.81-7.33c2.1-1.97,3.63-3.26,5.51-5.04,4.65-4.41,8.12-9.86,13.13-14.15,1.3-1.11,1.31-3.04,3.29-3.93,2.8-1.24,3.73-5.07,5.72-7.19,9.44-10,4.41-7.63,12.6-16.09,2.16-2.23,2.72-6.5,5.12-8.4,2.01-1.59,2.56-3.23,3.96-5.11l5.43-7.3c3.28-4.41,5.84-8.99,8.53-13.76,1.36-2.41,3.35-3.48,4.14-6.67-.02.08,3.97-5.58,6.32-11.99.72-1.96,3.23-2.96,2.9-5.83.23-.74,2.23-1.15,2.68-1.97l6.06-10.96c3.53-6.39,9.3-14.53,11.37-19.67.63-1.58,12.24-22.12,12.77-23.24l5.48-11.55c.91-1.92,2.23-3.01,2.57-5.36.52-3.5,3.41-6.29,4.55-9.49,4.5-12.6,6.58-13.44,10.21-24.67,1.72-5.31,4.72-9.3,5.16-15.59.06-.86,1.07-1.69,1.27-2.4.28-1.01-1.1-1.85-1.53-2.84.8-.51,2.11-2.54,2.99-3.31,6.23-1.02,12.89,2.72,15.75,8.58,1.31,2.68-.53,5.36-1.58,7.52l-4.07,8.35c-2.6,5.34-3.52,11.15-5.6,16.63l-5.73,15.04c-1.18,3.11-2.66,6.21-4.09,9.18l-12.47,26.02-10.14,19.52c-1.69,3.24-2.77,6.3-4.95,9.48-1.44,2.11-2.42,4.92-3.75,7.17l-3.06,5.18c-2.23,3.78-3.05,8.45-7.42,10.68.74.87,1.15,1.2,1.3,1.68-.26-.88-8.21,13.81-9.03,15.08-2.32,3.59-4.78,6.9-6.53,10.89s-6.98,9.42-9.4,15.27c1.65.8,4.65.78,5.42-.54,1.12-1.94,8.56-7.64,10.95-8.68s14.06-13.24,13.82-13.07c4.47-3.1,8.26-6.46,12.08-10.22,3.6-3.55,7.88-6.17,11.06-10.05,2.16-2.64,5.25-4.14,7.59-6.67,3.53-3.8,6.93-7.43,11-10.71-.69.56,16.94-15.48,14.15-13.89l3.57-2.04c3-1.71,5.24-5.36,7.95-8.07l20.44-20.4c3.44-3.44,11.61-12.25,14.67-13.75s4.82-.66,7.54-.15c5.34,1.01,10.27,5.26,8.61,11.2-.77,2.75-1.74,6.12-3.82,8.12l-10.1,9.73c-1.95,1.88-17.12,16.48-17.59,16.78-4.43,2.81-7.23,5.92-10.55,9.73-2.28,2.61-5.32,4.94-7.73,7.28-1.64,1.59-3.6,1.74-4.93,4.36-1.85,3.64-13.19,11.95-16.88,16.53-4.53,5.62-9.98,7.9-16.07,14.48l-5.23,5.65c-2.62,2.83-6.12,5.18-8.75,8.29l-3.71-.86c.24,1,.62,1.61.71,2.06.18.99-1.74,1.09-2.03,1.64-1.46,2.72-3.6,3.81-5.58,5.75l-10.8,10.59c-2.09,2.05-5.27,2.96-7.08,5.08s-3.71,2.87-5.74,4.12c-.84.51-1.79,2.13-2.69,2.86l-22.01,17.89c-3.28,2.66-6.33,4.92-10.15,6.77-1.82.88-2.81,3.27-4.92,3.25,2.36,1.94,4.25,1.46,6.64.94,5.63-1.22,11.19-1.98,16.78-2.99l14.25-2.58c3.15-.57,5.76-1.28,8.82-1.69l10.66-1.42c10.38-1.38,20.15-4,30.29-6.66l18.36-4.82c3.44-.9,16.09-4.38,17.99-6.15.52-.49,2.31.6,2.88,0,.73-.77,1.91-1.8,2.05-3.29.94-9.9,2.74-19.71,7.42-28.72,9.39-18.07,11.65-20.72,27.73-34.68,1.54-1.34,5.48-2.15,7.57-2.13,8.98.1,15.75-4.42,21.03,5.55,1.89,3.56,5.79,6.36,6.06,10.77.15,2.36.29,4.47,1.25,6.61,1.15,2.57-1.01,5.32-1.01,7.85.01,5.7-2.98,9.9-5.24,14.95l-1.71,3.82-8.84,9.56c-1.35,1.46-2.51,3.47-4.57,4.08-4.7,1.37-5.77,5.69-11.71,9.08l-9.22,5.25c-2.08,1.18-4.66,1.29-6.14,3.5,3,4.79,9.45,9.07,15.15,7.53,11.56-3.11,15.42-5.32,24.26-12.16,2.44-1.88,14.09-13.99,14.87-15.21,5.15-8.02,9.24-13.3,13.49-21.26l6.45-12.07c2.67-5,4.4-10.46,6.56-15.74.85-2.08-.68-5,.48-7ZM243.78,194.7c2.42-2.55,4.41-2.84,6.9-4.26,1.65-.94,5.72-9.63,8.34-9.3.89-3.61,5.76-14.27,1.91-16.02-1.05-.48-2.13.17-3.22.51-4.03,1.26-6.59,3.56-9.68,6.22l-4.68,4.04c.63-.54-20.25,26.45-11.73,28.65-.12-4.66,8.9-6.42,12.16-9.85Z"/></svg>